<svg width="650" height="650" viewBox="0 0 650 650" fill="none" xmlns="http://www.w3.org/2000/svg">
<path d="M567.385 230.23C564.59 224.12 560.268 219.05 554.58 214.922C554.613 214.305 554.613 213.687 554.613 213.07C554.613 191.62 537.225 174.232 515.775 174.232C498.03 174.232 483.08 186.127 478.433 202.41C459.55 203.97 438.425 207.577 415.643 213.07C390.683 193.992 359.515 182.65 325.683 182.65C249.86 182.65 187.33 239.59 178.49 313.04C108.225 356.427 65.8126 401.992 81.1201 435.24C94.8676 465.172 130.78 474.402 235.95 448.955C260.878 467.935 291.98 479.212 325.715 479.212C402.805 479.212 466.148 420.387 473.298 345.182C541.58 301.372 579.8 257.432 567.385 230.23ZM111.508 423.442C104.195 406.932 119.763 383.89 177.808 348.4C181.578 375.245 193.538 403.097 209.658 423.345C157.658 434.525 119.633 441.74 111.508 423.442ZM330.103 385.352C300.43 398.092 271.278 407.907 244.4 415.122C222.853 394.322 209.268 365.3 208.683 333.125C208.683 332.41 208.65 331.695 208.65 330.98C208.65 317.265 211.023 304.07 215.378 291.85C231.465 246.48 274.755 214.012 325.65 214.012C343.038 214.012 359.548 217.815 374.4 224.64C387.108 230.49 398.613 238.517 408.363 248.267C428.675 268.58 441.545 296.335 442.553 327.08C410.67 346.84 372.353 367.217 330.103 385.352ZM472.095 307.677C468 281.775 457.21 258.082 441.513 238.485C440.798 237.607 440.083 236.73 439.335 235.852C454.025 231.952 467.61 229.222 479.733 227.76C485.518 241.962 499.428 251.972 515.71 251.972C523.64 251.972 531.018 249.6 537.16 245.505C533.813 258.082 509.893 281.352 472.095 307.677Z" fill="#FAFAFA"/>
<path d="M122.525 283.368H111.215V272.025C111.215 269.62 109.265 267.703 106.892 267.703C104.487 267.703 102.57 269.653 102.57 272.025V283.335H91.26C88.855 283.335 86.9375 285.285 86.9375 287.658C86.9375 290.063 88.8875 291.98 91.26 291.98H102.57V303.29C102.57 305.695 104.52 307.613 106.892 307.613C109.297 307.613 111.215 305.663 111.215 303.29V291.98H122.525C124.93 291.98 126.847 290.03 126.847 287.658C126.847 285.285 124.897 283.368 122.525 283.368Z" fill="#FAFAFA"/>
<path d="M321.328 123.402H310.018V112.092C310.018 109.687 308.068 107.77 305.695 107.77C303.29 107.77 301.373 109.72 301.373 112.092V123.402H290.063C287.658 123.402 285.74 125.352 285.74 127.725C285.74 130.097 287.69 132.047 290.063 132.047H301.373V143.357C301.373 145.762 303.323 147.68 305.695 147.68C308.1 147.68 310.018 145.73 310.018 143.357V132.047H321.328C323.733 132.047 325.65 130.097 325.65 127.725C325.65 125.352 323.733 123.402 321.328 123.402Z" fill="#FAFAFA"/>
<path d="M566.345 348.335H555.035V337.025C555.035 334.62 553.085 332.703 550.713 332.703C548.308 332.703 546.39 334.653 546.39 337.025V348.335H535.08C532.675 348.335 530.758 350.285 530.758 352.657C530.758 355.062 532.708 356.98 535.08 356.98H546.39V368.29C546.39 370.695 548.34 372.612 550.713 372.612C553.118 372.612 555.035 370.662 555.035 368.29V356.98H566.345C568.75 356.98 570.668 355.03 570.668 352.657C570.668 350.285 568.718 348.335 566.345 348.335Z" fill="#FAFAFA"/>
<path d="M235.268 499.232L242.613 491.888C244.173 490.328 244.173 487.825 242.613 486.265C241.053 484.705 238.55 484.705 236.99 486.265L229.645 493.61L222.3 486.265C220.74 484.705 218.238 484.705 216.678 486.265C215.118 487.825 215.118 490.328 216.678 491.888L224.023 499.232L216.678 506.577C215.118 508.137 215.118 510.64 216.678 512.2C218.238 513.76 220.74 513.76 222.3 512.2L229.645 504.855L236.99 512.2C238.55 513.76 241.053 513.76 242.613 512.2C244.173 510.64 244.173 508.137 242.613 506.577L235.268 499.232Z" fill="#FAFAFA"/>
<path d="M159.477 234.877C173.172 234.877 184.275 223.775 184.275 210.08C184.275 196.385 173.172 185.282 159.477 185.282C145.782 185.282 134.68 196.385 134.68 210.08C134.68 223.775 145.782 234.877 159.477 234.877Z" fill="#FAFAFA"/>
<path d="M515.775 541.417C546.486 541.417 571.382 516.521 571.382 485.81C571.382 455.099 546.486 430.202 515.775 430.202C485.063 430.202 460.167 455.099 460.167 485.81C460.167 516.521 485.063 541.417 515.775 541.417Z" fill="#FAFAFA"/>
</svg>
