<svg width="20" height="20" viewBox="0 0 20 20" fill="none" xmlns="http://www.w3.org/2000/svg">
<rect x="8.75735" y="9.82842" width="8" height="2" transform="rotate(-45 8.75735 9.82842)" fill="#0D0D0D"/>
<rect x="14.4142" y="4.17158" width="2" height="2" transform="rotate(-45 14.4142 4.17158)" fill="#0D0D0D"/>
<rect x="11.5858" y="4.17158" width="2" height="2" transform="rotate(-45 11.5858 4.17158)" fill="#0D0D0D"/>
<rect x="14.4142" y="7.00001" width="2" height="2" transform="rotate(-45 14.4142 7.00001)" fill="#0D0D0D"/>
<rect x="13.7071" y="9.12133" width="2" height="2" transform="rotate(-45 13.7071 9.12133)" fill="#0D0D0D"/>
<rect x="9.46445" y="4.87868" width="2" height="2" transform="rotate(-45 9.46445 4.87868)" fill="#0D0D0D"/>
<rect x="4" y="6" width="5" height="2" fill="#0D0D0D"/>
<rect x="3" y="7" width="2" height="9" fill="#0D0D0D"/>
<rect x="4" y="15" width="10" height="2" fill="#0D0D0D"/>
<rect x="13" y="11" width="2" height="5" fill="#0D0D0D"/>
</svg>
